# xmcd
#
# Track frame offsets:
#	150
#	11392
#	24355
#	37287
#	46860
#	58275
#	71005
#	82445
#	92695
#	104830
#	116712
#	126032
#	146542
#	159490
#	172970
#	186410
#	198607
#	210505
#
# Disc length: 2921 seconds
#
# Revision: 1
# Processed by: cddbd v1.5.2PL0 Copyright (c) Steve Scherf et al.
# Submitted via: audiograbber 1.83.01
#
DISCID=0c0b6712
DTITLE=Various Artist - Compact Country - Disc 3
DYEAR=1900
DGENRE=Country
TTITLE0=Guy Mitchell - Singing The Blues
TTITLE1=Frankie Laine - Cool Water
TTITLE2=George Jones - I Love You Because
TTITLE3=Duane Eddy - 40 Miles Of Bad Road
TTITLE4=Marty Robbins - Restless Cattle
TTITLE5=Claude King - Wolverton Mountain
TTITLE6=Hank Locklin - Send Me The Pillow That You Dream On
TTITLE7=Don Gibson - Sae Of Heartbreak
TTITLE8=Johnny Paycheck - Take This Job And Shove It
TTITLE9=Johnny Cash - I Walk The Line
TTITLE10=Frankie Laine - Rawhide
TTITLE11=Kris Kristofferson - Sunday Morning Comin' Down
TTITLE12=Roy Orbison - Born On The Wind
TTITLE13=Gene Pitney - The Man Who Shot Liberty Valance
TTITLE14=Michael Jones - Don't Cry Daddy
TTITLE15=Tammy Wynette - Stand By Your Man
TTITLE16=Don Williams - She Walked Out On Her Way To Be A Woman
TTITLE17=Gene Autry - You Are My Sunshine
EXTD=
EXTT0=
EXTT1=
EXTT2=
EXTT3=
EXTT4=
EXTT5=
EXTT6=
EXTT7=
EXTT8=
EXTT9=
EXTT10=
EXTT11=
EXTT12=
EXTT13=
EXTT14=
EXTT15=
EXTT16=
EXTT17=
PLAYORDER=
